HIERARCHY
ROOT Hips
{
    OFFSET   0.000000   0.000000   0.000000
    CHANNELS 6 Xposition Yposition Zposition Zrotation Xrotation Yrotation
    JOINT Chest
    {
        OFFSET   0.000000   8.007230   0.000000
        CHANNELS 3 Zrotation Xrotation Yrotation
        JOINT Chest2
        {
            OFFSET   0.000000  22.077100   0.000000
            CHANNELS 3 Zrotation Xrotation Yrotation
            JOINT Neck
            {
                OFFSET   0.000000  23.254800  -0.000021
                CHANNELS 3 Zrotation Xrotation Yrotation
                JOINT Head
                {
                    OFFSET   0.000000  14.370000   1.956610
                    CHANNELS 3 Zrotation Xrotation Yrotation
                    End Site
                    {
                        OFFSET   0.000000  19.566000   0.000000
                    }
                }
            }
            JOINT LeftCollar
            {
                OFFSET   3.911900  19.017000  -0.467063
                CHANNELS 3 Zrotation Xrotation Yrotation
                JOINT LeftShoulder
                {
                    OFFSET  10.383700   0.000000   0.000000
                    CHANNELS 3 Zrotation Xrotation Yrotation
                    JOINT LeftElbow
                    {
                        OFFSET  26.662100   0.001529   0.000325
                        CHANNELS 3 Zrotation Xrotation Yrotation
                        JOINT LeftWrist
                        {
                            OFFSET  28.869000  -0.000011  -0.000096
                            CHANNELS 3 Zrotation Xrotation Yrotation
                            JOINT LeftFinger0
                            {
                                OFFSET   2.044650  -2.323460   3.252850
                                CHANNELS 3 Zrotation Xrotation Yrotation
                                JOINT LeftFinger01
                                {
                                    OFFSET   3.088130   0.000000   0.000000
                                    CHANNELS 3 Zrotation Xrotation Yrotation
                                    JOINT LeftFinger02
                                    {
                                        OFFSET   2.639460   0.000000   0.000000
                                        CHANNELS 3 Zrotation Xrotation Yrotation
                                        End Site
                                        {
                                            OFFSET   2.582190   0.000000   0.000000
                                        }
                                    }
                                }
                            }
                            JOINT LeftFinger1
                            {
                                OFFSET   8.364480   0.000000   3.252850
                                CHANNELS 3 Zrotation Xrotation Yrotation
                                JOINT LeftFinger11
                                {
                                    OFFSET   4.646930   0.000000   0.000000
                                    CHANNELS 3 Zrotation Xrotation Yrotation
                                    JOINT LeftFinger12
                                    {
                                        OFFSET   2.323460   0.000000   0.000000
                                        CHANNELS 3 Zrotation Xrotation Yrotation
                                        End Site
                                        {
                                            OFFSET   2.273050   0.000000   0.000000
                                        }
                                    }
                                }
                            }
                            JOINT LeftFinger2
                            {
                                OFFSET   8.364480   0.000016   1.078090
                                CHANNELS 3 Zrotation Xrotation Yrotation
                                JOINT LeftFinger21
                                {
                                    OFFSET   5.111620   0.000000   0.000000
                                    CHANNELS 3 Zrotation Xrotation Yrotation
                                    JOINT LeftFinger22
                                    {
                                        OFFSET   2.788160   0.000017   0.000000
                                        CHANNELS 3 Zrotation Xrotation Yrotation
                                        End Site
                                        {
                                            OFFSET   2.727660   0.000000   0.000000
                                        }
                                    }
                                }
                            }
                            JOINT LeftFinger3
                            {
                                OFFSET   7.899780   0.000015  -1.078090
                                CHANNELS 3 Zrotation Xrotation Yrotation
                                JOINT LeftFinger31
                                {
                                    OFFSET   4.646920   0.000000   0.000000
                                    CHANNELS 3 Zrotation Xrotation Yrotation
                                    JOINT LeftFinger32
                                    {
                                        OFFSET   2.323470   0.000000   0.000000
                                        CHANNELS 3 Zrotation Xrotation Yrotation
                                        End Site
                                        {
                                            OFFSET   2.273050   0.000000   0.000000
                                        }
                                    }
                                }
                            }
                            JOINT LeftFinger4
                            {
                                OFFSET   7.435090   0.000000  -3.252850
                                CHANNELS 3 Zrotation Xrotation Yrotation
                                JOINT LeftFinger41
                                {
                                    OFFSET   3.717550   0.000000   0.000000
                                    CHANNELS 3 Zrotation Xrotation Yrotation
                                    JOINT LeftFinger42
                                    {
                                        OFFSET   1.858760   0.000000   0.000000
                                        CHANNELS 3 Zrotation Xrotation Yrotation
                                        End Site
                                        {
                                            OFFSET   1.818440   0.000000   0.000000
                                        }
                                    }
                                }
                            }
                        }
                    }
                }
            }
            JOINT RightCollar
            {
                OFFSET  -3.911900  19.017000  -0.467062
                CHANNELS 3 Zrotation Xrotation Yrotation
                JOINT RightShoulder
                {
                    OFFSET -10.383700   0.000015   0.000000
                    CHANNELS 3 Zrotation Xrotation Yrotation
                    JOINT RightElbow
                    {
                        OFFSET -26.662100   0.001341   0.000385
                        CHANNELS 3 Zrotation Xrotation Yrotation
                        JOINT RightWrist
                        {
                            OFFSET -28.869000   0.000025  -0.000080
                            CHANNELS 3 Zrotation Xrotation Yrotation
                            JOINT RightFinger0
                            {
                                OFFSET  -2.044650  -2.323490   3.252850
                                CHANNELS 3 Zrotation Xrotation Yrotation
                                JOINT RightFinger01
                                {
                                    OFFSET  -3.088130   0.000000   0.000000
                                    CHANNELS 3 Zrotation Xrotation Yrotation
                                    JOINT RightFinger02
                                    {
                                        OFFSET  -2.639460   0.000000   0.000000
                                        CHANNELS 3 Zrotation Xrotation Yrotation
                                        End Site
                                        {
                                            OFFSET  -2.582190   0.000000   0.000000
                                        }
                                    }
                                }
                            }
                            JOINT RightFinger1
                            {
                                OFFSET  -8.364480   0.000000   3.252850
                                CHANNELS 3 Zrotation Xrotation Yrotation
                                JOINT RightFinger11
                                {
                                    OFFSET  -4.646930   0.000000   0.000000
                                    CHANNELS 3 Zrotation Xrotation Yrotation
                                    JOINT RightFinger12
                                    {
                                        OFFSET  -2.323470   0.000000   0.000000
                                        CHANNELS 3 Zrotation Xrotation Yrotation
                                        End Site
                                        {
                                            OFFSET  -2.273050   0.000000   0.000000
                                        }
                                    }
                                }
                            }
                            JOINT RightFinger2
                            {
                                OFFSET  -8.364480   0.000000   1.078090
                                CHANNELS 3 Zrotation Xrotation Yrotation
                                JOINT RightFinger21
                                {
                                    OFFSET  -5.111610   0.000000   0.000000
                                    CHANNELS 3 Zrotation Xrotation Yrotation
                                    JOINT RightFinger22
                                    {
                                        OFFSET  -2.788160   0.000000   0.000000
                                        CHANNELS 3 Zrotation Xrotation Yrotation
                                        End Site
                                        {
                                            OFFSET  -2.727660   0.000000   0.000000
                                        }
                                    }
                                }
                            }
                            JOINT RightFinger3
                            {
                                OFFSET  -7.899780   0.000000  -1.078090
                                CHANNELS 3 Zrotation Xrotation Yrotation
                                JOINT RightFinger31
                                {
                                    OFFSET  -4.646920   0.000000   0.000000
                                    CHANNELS 3 Zrotation Xrotation Yrotation
                                    JOINT RightFinger32
                                    {
                                        OFFSET  -2.323470   0.000000   0.000000
                                        CHANNELS 3 Zrotation Xrotation Yrotation
                                        End Site
                                        {
                                            OFFSET  -2.273050   0.000000   0.000000
                                        }
                                    }
                                }
                            }
                            JOINT RightFinger4
                            {
                                OFFSET  -7.435090   0.000000  -3.252850
                                CHANNELS 3 Zrotation Xrotation Yrotation
                                JOINT RightFinger41
                                {
                                    OFFSET  -3.717550   0.000000   0.000000
                                    CHANNELS 3 Zrotation Xrotation Yrotation
                                    JOINT RightFinger42
                                    {
                                        OFFSET  -1.858770   0.000000   0.000000
                                        CHANNELS 3 Zrotation Xrotation Yrotation
                                        End Site
                                        {
                                            OFFSET  -1.818440   0.000000   0.000000
                                        }
                                    }
                                }
                            }
                        }
                    }
                }
            }
        }
    }
    JOINT LeftHip
    {
        OFFSET   9.783010   0.000000   0.000000
        CHANNELS 3 Zrotation Xrotation Yrotation
        JOINT LeftKnee
        {
            OFFSET   0.000070 -41.789100   0.000028
            CHANNELS 3 Zrotation Xrotation Yrotation
            JOINT LeftAnkle
            {
                OFFSET   0.000087 -41.133200  -0.000100
                CHANNELS 3 Zrotation Xrotation Yrotation
                JOINT LeftToe
                {
                    OFFSET   0.000000  -6.358960  14.674500
                    CHANNELS 3 Zrotation Xrotation Yrotation
                    End Site
                    {
                        OFFSET   0.000000   0.000000   3.913200
                    }
                }
            }
        }
    }
    JOINT RightHip
    {
        OFFSET  -9.783020   0.000000   0.000000
        CHANNELS 3 Zrotation Xrotation Yrotation
        JOINT RightKnee
        {
            OFFSET   0.000044 -41.789100  -0.000870
            CHANNELS 3 Zrotation Xrotation Yrotation
            JOINT RightAnkle
            {
                OFFSET  -0.000090 -41.133200  -0.000245
                CHANNELS 3 Zrotation Xrotation Yrotation
                JOINT RightToe
                {
                    OFFSET   0.000000  -6.358960  14.674500
                    CHANNELS 3 Zrotation Xrotation Yrotation
                    End Site
                    {
                        OFFSET   0.000000   0.000000   3.913200
                    }
                }
            }
        }
    }
}
MOTION
Frames: 4
Frame Time:   0.016667
  1.336540  89.513000  -0.712353  -1.144590  -3.445800   5.282680   0.760738   4.090020  -0.840014   1.587760   8.168000  -1.741220  -1.265300   0.574897   0.016804  -2.079710   1.164360   3.985030  -5.658820   2.260110   8.961280 -78.411000   4.435110   0.131943  -1.240270   0.386603 -19.717600   9.211200  -1.365640  -1.690940  41.975500  37.252800 -51.672800 -32.907700   0.000000   0.004475 -11.451100   0.000000   0.000000 -29.244700  -1.203760   2.149560 -23.948900  -0.002274  -0.002952 -16.759700   0.000000  -0.002442 -28.555500  -3.839130   7.012940 -41.294800  -0.000682  -0.000627 -27.502300   0.000078  -0.000449 -27.375700  -4.226360   8.102510 -30.048300   0.001220  -0.010148 -20.012200   0.000794   0.000100 -26.636500  -4.759740   9.388280 -40.542400   0.000367  -0.000000 -27.001300   0.004315  -0.000000   7.463020   3.938480   6.048920  72.763800  -9.745060   0.568137   3.901300  -8.753100  17.525500 -14.772400   4.014230   5.133040 -49.490600  42.996900  84.093800  24.460300   0.003932  -0.001699   7.230140   0.003872  -0.009811  29.043700   0.798914   1.444550  23.771200   0.001854  -0.002643  16.639900   0.000578  -0.002223  28.415100  -0.181550  -0.329703  35.168000   0.001600   0.002238  23.421800   0.009406  -0.001878  28.656600  -0.646728  -1.179820  38.320300  -0.006435   0.000313  25.521300   0.003789  -0.000462  32.756600  -0.730266  -1.130650  49.145800   0.001407  -0.004455  32.731200  -0.001871  -0.002999   4.189620   4.276820  -2.215970  -0.332278   0.581511  12.228200  -2.212610  -1.698690   0.700667   0.000000   0.000000   0.000000  -1.491910   5.255920  -7.368110   1.302420   1.782450 -13.080500   1.157940  -2.406990   2.446690   0.000000   0.000000   0.000000
  1.341200  89.513000  -0.705086  -1.143290  -3.460030   5.282590   0.761655   4.093380  -0.840216   1.589690   8.174710  -1.741810  -1.265340   0.586676   0.016792  -2.080190   1.188100   3.948760  -5.658960   2.259920   8.967060 -78.421600   4.416230   0.131934  -1.236340   0.436497 -19.752000   9.210890  -1.374040  -1.690940  41.981500  37.257900 -51.677300 -32.907700   0.000000   0.004471 -11.451100  -0.000033  -0.000000 -29.243800  -1.211970   2.164080 -23.948700  -0.002278  -0.002955 -16.759700   0.000000  -0.002447 -28.555500  -3.839140   7.012920 -41.319400  -0.000680  -0.000616 -27.518700   0.000077  -0.000442 -27.375400  -4.227430   8.104120 -30.061600   0.001217  -0.010143 -20.019500   0.000787   0.000106 -26.643500  -4.759740   9.388280 -40.552300   0.000369  -0.000000 -27.007800   0.004301   0.000000   7.457300   3.938270   6.050710  72.751900  -9.735160   0.576644   3.894640  -8.742570  17.547000 -14.753600   4.002440   5.129080 -49.489100  43.003200  84.103200  24.467600   0.003933  -0.001694   7.233780   0.003871  -0.009801  29.043700   0.798914   1.443430  23.771200   0.001843  -0.002634  16.639900   0.000574  -0.002217  28.415100  -0.181550  -0.331074  35.168000   0.001593   0.002247  23.421800   0.009398  -0.001868  28.656500  -0.646806  -1.179690  38.325600  -0.006442   0.000312  25.524800   0.003781  -0.000454  32.756600  -0.730354  -1.130580  49.145800   0.001404  -0.004448  32.731200  -0.001875  -0.002993   4.190430   4.298660  -2.216000  -0.332183   0.577164  12.228300  -2.212210  -1.699930   0.698774  -0.000000   0.000000   0.000000  -1.489950   5.276490  -7.368530   1.302410   1.783170 -13.080500   1.158040  -2.412100   2.440780  -0.000000   0.000000   0.000000
  1.348690  89.513100  -0.693253  -1.141100  -3.483720   5.282560   0.763848   4.099610  -0.840420   1.594220   8.187170  -1.742420  -1.265430   0.605160   0.016778  -2.080920   1.225380   3.891020  -5.659240   2.259700   8.976650 -78.438600   4.392330   0.131888  -1.229270   0.514512 -19.808700   9.210410  -1.387910  -1.690940  41.990700  37.267000 -51.685300 -32.907800   0.000000   0.004465 -11.451100  -0.000078   0.000000 -29.242500  -1.225380   2.187750 -23.948500  -0.002288  -0.002966 -16.759700   0.000000  -0.002458 -28.555500  -3.839160   7.012890 -41.354500  -0.000674  -0.000585 -27.542100   0.000074  -0.000422 -27.374200  -4.231390   8.111200 -30.075000   0.001208  -0.010130 -20.030000   0.000771   0.000123 -26.650400  -4.759740   9.388280 -40.562200   0.000372  -0.000000 -27.014400   0.004274  -0.000000   7.449340   3.938060   6.054400  72.731100  -9.717510   0.591440   3.884550  -8.724050  17.584300 -14.731000   3.984830   5.120450 -49.487100  43.013900  84.118600  24.479800   0.003935  -0.001688   7.239900   0.003866  -0.009778  29.043800   0.798913   1.438360  23.771200   0.001814  -0.002613  16.639900   0.000561  -0.002199  28.415000  -0.181551  -0.335695  35.168000   0.001571   0.002270  23.421800   0.009379  -0.001844  28.656400  -0.646960  -1.179560  38.337900  -0.006460   0.000308  25.533000   0.003760  -0.000434  32.756600  -0.730527  -1.130500  49.145800   0.001397  -0.004428  32.731200  -0.001885  -0.002978   4.191740   4.334070  -2.216020  -0.332031   0.570741  12.228400  -2.211490  -1.703520   0.694882  -0.000000   0.000000   0.000000  -1.486960   5.304940  -7.369040   1.302350   1.788210 -13.080400   1.158270  -2.422130   2.430800   0.000000   0.000000   0.000000
  1.354440  89.513100  -0.684734  -1.139660  -3.501020   5.282700   0.767063   4.105700  -0.840088   1.600750   8.199280  -1.742030  -1.265590   0.617713   0.016776  -2.081520   1.250770   3.850380  -5.660100   2.260970   8.984540 -78.450200   4.386480   0.129016  -1.222210   0.565657 -19.854800   9.210300  -1.401380  -1.685250  41.997800  37.277300 -51.695000 -32.907900  -0.000062   0.004464 -11.451200  -0.000087   0.000000 -29.243700  -1.237200   2.208310 -23.948600  -0.002299  -0.002984 -16.760900  -0.000027  -0.002471 -28.555500  -3.839210   7.012830 -41.371900  -0.000663  -0.000534 -27.552900   0.000072  -0.000393 -27.371800  -4.240260   8.128310 -30.074800   0.001192  -0.010108 -20.035200   0.000744   0.000152 -26.648900  -4.763860   9.396740 -40.561800   0.000375   0.000042 -27.014100   0.004247   0.000035   7.446590   3.938080   6.059110  72.711600  -9.702070   0.604166   3.879660  -8.707680  17.618700 -14.727000   3.977220   5.109420 -49.487400  43.025100  84.133600  24.490200   0.003919  -0.001689   7.245110   0.003850  -0.009743  29.050100   0.793332   1.425960  23.776200   0.001771  -0.002583  16.643400   0.000538  -0.002169  28.414900  -0.185938  -0.345263  35.178100   0.001538   0.002307  23.428600   0.009349  -0.001806  28.656400  -0.647157  -1.180860  38.353900  -0.006489   0.000302  25.543700   0.003729  -0.000403  32.759400  -0.730750  -1.130740  49.150100   0.001383  -0.004393  32.734000  -0.001903  -0.002956   4.192650   4.358390  -2.215970  -0.331896   0.566784  12.228500  -2.210630  -1.709700   0.689820  -0.000000   0.000000   0.000000  -1.485560   5.310790  -7.367860   1.297530   1.810940 -13.077800   1.158730  -2.433680   2.423700   0.000000   0.000000  -0.000000
